<svg width="93" height="66" viewBox="0 0 93 66" fill="none" xmlns="http://www.w3.org/2000/svg">
<path d="M40.5424 25.3467C40.4925 25.5154 40.4099 25.6723 40.2994 25.8083C39.7718 26.3878 40.0876 26.0039 39.6331 26.6394C39.4219 26.9509 39.1907 27.2481 38.9412 27.5291C38.7406 27.7523 38.4633 27.8893 38.1665 27.9118C37.8697 27.9344 37.576 27.8407 37.3461 27.6503C37.1062 27.4594 36.9492 27.1816 36.908 26.8752C36.8669 26.5689 36.9449 26.258 37.1255 26.008C37.8148 25.04 37.7817 25.1289 38.4868 24.1768C38.6556 23.9368 38.9049 23.7673 39.188 23.6999C39.471 23.6325 39.7683 23.672 40.024 23.8108C40.5624 24.1089 40.7651 24.7079 40.5424 25.3467Z" fill="white"/>
<path fill-rule="evenodd" clip-rule="evenodd" d="M81.4066 29.0958C81.7465 28.8385 82.1098 28.7133 82.533 28.8368C83.4264 29.0947 83.7577 30.2834 83.0301 30.8487C80.7997 32.5669 78.3861 33.8879 75.5222 34.116C74.8738 34.1695 74.2547 34.0582 73.7234 33.6552C73.5414 33.5165 73.3965 33.5719 73.2282 33.6362C73.2212 33.6389 73.2142 33.6415 73.2071 33.6442C72.2249 34.0224 71.2256 34.1215 70.206 33.823C69.6588 33.6801 69.1734 33.3595 68.824 32.9103C68.6367 32.6615 68.5265 32.6968 68.3305 32.8923C67.1373 34.084 65.7206 35.0217 64.1643 35.6498C63.1723 36.0574 62.1608 36.3113 61.1122 35.8479C61.0053 35.8052 60.9245 35.8392 60.837 35.876C60.8213 35.8827 60.8053 35.8894 60.789 35.8958C59.2252 36.5282 57.6027 36.9992 55.9463 37.3016C55.126 37.4467 54.4292 37.2283 53.9474 36.5104C53.8093 36.3047 53.7058 36.3359 53.5361 36.4474C52.9631 36.8409 52.3296 37.1352 51.6617 37.3184C50.762 37.5433 49.9144 37.4905 49.2145 36.7869C49.0763 36.6489 48.9831 36.6654 48.8589 36.7925C48.6663 36.9897 48.4675 37.1787 48.2652 37.3661C47.7003 37.8961 46.9784 38.2221 46.2124 38.2933C44.8925 38.4295 43.8809 37.6817 43.6024 36.3643C43.4857 35.7471 43.5153 35.1103 43.6886 34.506C43.8881 33.7601 44.1566 33.0346 44.4906 32.3393C44.5482 32.217 44.602 32.0927 44.6683 31.9392C44.7148 31.8317 44.6089 31.7206 44.4994 31.7621C44.3481 31.8195 44.1998 31.8758 44.0538 31.9311C43.4475 32.1611 42.8823 32.3755 42.3175 32.5918C42.1425 32.6594 42.1481 32.8044 42.1534 32.9437C42.1548 32.9782 42.1561 33.0124 42.1546 33.045C42.0913 34.6158 41.7203 36.0727 40.8628 37.4276C39.741 39.3109 38.5918 40.1072 36.9702 40.0823C35.8483 40.065 35.1513 39.4922 34.8629 38.3877C34.8443 38.3171 34.8829 38.1336 34.9245 37.936C34.9483 37.8231 34.973 37.7056 34.9886 37.6019C35.0047 37.4952 34.9042 37.4641 34.8431 37.553C34.7501 37.6881 34.6426 37.8542 34.5404 38.0123C34.405 38.2215 34.2788 38.4165 34.2075 38.5069C33.2918 39.64 32.1925 40.6074 30.9567 41.3675C30.5606 41.6365 30.1175 41.8266 29.6514 41.9275C28.671 42.1078 27.8743 41.5261 27.7358 40.5242C27.663 40.0031 27.7797 39.5121 27.9621 39.0294C28.332 38.0579 28.8505 36.8965 29.3444 35.7899C29.6319 35.1458 29.9111 34.5203 30.1479 33.9616C30.6401 32.8055 31.0233 31.6184 31.1553 30.3602C31.1892 30.0415 31.1775 29.7196 31.1203 29.4046C31.0717 29.1351 30.9779 29.0691 30.7177 29.2049C30.017 29.5805 29.3704 30.0517 28.796 30.6052C27.216 32.1089 26.5557 33.9117 25.449 35.7767C24.4007 37.5551 23.5375 39.4385 22.8734 41.3964C22.7537 41.755 22.6085 42.1043 22.4389 42.4417C22.3191 42.686 22.1206 42.8818 21.8763 42.9966C21.6319 43.1115 21.3564 43.1385 21.0954 43.0733C20.8269 43.0097 20.5884 42.8548 20.4196 42.6344C20.2508 42.4141 20.1619 42.1415 20.1678 41.8623C20.1739 41.1013 20.441 40.4004 20.7678 39.7366C21.8913 37.4775 22.7304 35.1039 23.5518 32.7255C24.0217 31.3611 24.3789 29.9652 24.4049 28.5066C24.4063 28.4711 24.4113 28.4326 24.4164 28.3933C24.4335 28.2619 24.4517 28.1222 24.34 28.0579C24.2301 27.9945 24.126 28.0841 24.0281 28.1682C23.9969 28.1951 23.9664 28.2214 23.9364 28.242C22.391 29.3083 21.1575 30.7056 20.1241 32.25C19.7087 32.8713 19.3985 33.5637 19.088 34.257C18.9147 34.6437 18.7414 35.0307 18.5496 35.4057C16.9165 38.6021 15.2789 41.7955 13.5388 44.9341C13.436 45.1261 13.3118 45.3058 13.1687 45.4694C12.9957 45.6683 12.7629 45.8042 12.5064 45.8561C12.2499 45.9081 11.9839 45.8731 11.7495 45.7567C11.5216 45.645 11.3338 45.4643 11.2121 45.2395C11.0905 45.0147 11.041 44.757 11.0705 44.502C11.1216 44.1562 11.208 43.8166 11.3284 43.4886C12.7523 39.1091 15.0435 35.2046 17.6842 31.477C17.9221 31.1479 18.1154 30.7883 18.2591 30.4076C18.7331 29.1709 19.1095 27.8984 19.3845 26.602C19.3924 26.5655 19.3989 26.5283 19.4053 26.485C19.4193 26.3913 19.3304 26.316 19.2417 26.3493C19.0411 26.4244 18.8505 26.5255 18.6748 26.6503C16.0984 28.2596 13.0921 31.1826 11.3298 33.6884C11.2576 33.7917 11.179 33.8942 11.1033 33.993C11.0962 34.0022 11.0892 34.0114 11.0822 34.0205C11.0738 34.0314 11.0638 34.041 11.0524 34.0488C10.7094 34.2846 10.3683 34.4665 9.91552 34.332C9.31456 34.154 8.79429 33.3943 9.14915 32.7008C9.91129 31.399 12.2173 28.9658 13.2693 27.9098C14.6377 26.53 15.6308 25.7114 17.2748 24.6857C17.9645 24.2571 18.677 23.8782 19.4741 23.6957C20.9145 23.3655 21.8861 24.1502 21.8821 25.646C21.8817 25.8978 21.8588 26.1502 21.8349 26.4132C21.8316 26.4505 21.8282 26.488 21.8248 26.5258C21.815 26.6355 21.9361 26.7058 22.0268 26.6432C22.0915 26.5985 22.1555 26.5539 22.219 26.5097C22.5101 26.3072 22.7912 26.1115 23.0848 25.938C25.0707 24.7612 26.5787 25.5618 26.7723 27.8799C26.8101 28.3391 26.7822 28.7974 26.7538 29.2642C26.7479 29.3623 26.7419 29.4607 26.7365 29.5596C26.7314 29.6522 26.8224 29.7181 26.8962 29.6619C26.9692 29.6062 27.0257 29.5386 27.0808 29.4726C27.1097 29.438 27.1382 29.4038 27.1685 29.3721C28.099 28.4029 28.5901 27.5558 29.8083 26.9834C31.7161 26.0884 32.8476 26.6274 33.3949 28.685C33.7317 29.9543 33.4936 31.1966 33.1859 32.4314C32.8515 33.7737 32.296 35.0281 31.7401 36.2834C31.5835 36.637 31.4269 36.9906 31.2752 37.3463C31.0234 37.8638 30.9148 38.1007 30.8365 38.2809C30.7978 38.37 30.8693 38.465 30.9548 38.4189C31.0332 38.3766 31.0937 38.3158 31.1506 38.2586C31.1773 38.2318 31.2031 38.2058 31.2297 38.1828C31.9151 37.5695 32.6026 36.6292 33.244 35.7518C33.5783 35.2946 33.9001 34.8545 34.2025 34.4867C35.0801 33.3868 35.8413 32.1968 36.4733 30.9364C36.8908 30.1413 37.5527 29.9036 38.2117 30.2673C38.8283 30.6097 38.9833 31.327 38.5669 32.094C37.8492 33.3975 37.44 34.8509 37.3714 36.3398C37.3685 36.3991 37.3599 36.4655 37.351 36.5339C37.3202 36.7705 37.2863 37.031 37.4779 37.1039C37.7965 37.2179 38.1574 36.9964 38.3931 36.7271C39.0035 36.0597 39.4187 35.2338 39.5921 34.3423C39.7413 33.5157 39.86 32.6903 39.6748 31.8375C39.5124 31.0922 40.1249 30.4275 40.893 30.4272C41.107 30.433 41.3204 30.3982 41.522 30.3244C41.8193 30.2105 42.1168 30.0972 42.4144 29.9839C44.0432 29.3639 45.672 28.7438 47.2538 28.007C47.4962 27.8894 47.7706 27.8581 48.0323 27.9184C48.2939 27.9786 48.5274 28.1268 48.6948 28.3388C48.8622 28.5508 48.9536 28.8141 48.9541 29.0859C48.9546 29.3577 48.8642 29.6219 48.6977 29.8356C47.7888 31.0958 47.0204 32.4536 46.4065 33.8842C46.1622 34.3973 45.9968 34.9449 45.9161 35.5081C45.8732 35.8866 45.9696 35.9505 46.3245 35.8058C46.4935 35.7238 46.6468 35.6118 46.777 35.4752C46.927 35.3375 47.0767 35.1993 47.2264 35.0611C47.6296 34.6889 48.033 34.3166 48.4431 33.9529C48.5727 33.8187 48.6701 33.6563 48.7278 33.4781C49.8921 30.7517 51.939 29.0337 54.7021 28.1408C55.0628 28.0242 55.6012 28.4695 55.6012 28.4695C55.6012 28.4695 55.8367 28.5075 55.8909 28.4806L56.2179 28.4109C56.324 28.3876 56.5558 28.3334 56.8397 28.3428C57.6862 28.3659 58.2364 28.8697 58.3214 29.7271C58.4009 30.532 58.1511 31.2499 57.7486 31.9264C57.3901 32.4905 56.9971 33.0315 56.5721 33.5462C56.494 33.6319 56.4209 33.7221 56.3533 33.8164C56.1848 34.1015 56.0042 34.4639 56.1335 34.7103C56.2133 34.8616 56.4157 34.7909 56.617 34.7206C56.7052 34.6898 56.7932 34.659 56.8706 34.647C57.421 34.5614 57.7185 34.284 57.9384 33.7063C58.483 32.2478 59.2112 30.866 60.105 29.5952C60.3723 29.2337 60.5842 28.8336 60.7336 28.4083C61.3743 26.508 62.0734 24.6274 62.7964 22.7497C62.944 22.3391 63.0694 21.9207 63.1721 21.4964C63.362 20.8005 63.9101 20.3861 64.5269 20.4861C65.1797 20.5906 65.594 21.1597 65.5002 21.9034C65.4038 22.6748 65.1222 23.3903 64.8408 24.1055C64.7546 24.3248 64.6683 24.5441 64.5874 24.7649C64.3901 25.3022 64.2075 25.8444 64.0238 26.3899C63.9603 26.5785 63.8967 26.7675 63.8322 26.9568C63.8059 27.0342 63.8584 27.1152 63.9353 27.0875C63.9817 27.0708 64.026 27.046 64.0705 27.0212C64.1155 26.9961 64.1606 26.971 64.2079 26.9541C64.3282 26.9097 64.4475 26.8611 64.5669 26.8125C64.7951 26.7196 65.0236 26.6266 65.2598 26.5626C66.7022 26.1687 67.748 26.943 67.8398 28.4497C67.8477 28.8102 67.8348 29.1707 67.8012 29.5296C67.7894 29.6552 67.945 29.7321 68.0277 29.6368C68.1476 29.4988 68.233 29.361 68.2679 29.1801C68.2705 29.1669 68.2748 29.1537 68.2809 29.1417C69.3158 27.1133 69.7645 25.5507 70.1471 24.2188C70.4808 23.0565 70.7642 22.0699 71.3425 21.1026C71.4699 20.8908 71.6243 20.6968 71.8017 20.5256C72.2075 20.1314 72.6864 19.9863 73.2279 20.2023C73.7508 20.411 74.0067 20.8297 74.0516 21.3793C74.1055 22.0309 73.9309 22.6536 73.7327 23.2611C73.1124 25.1726 71.8462 28.3264 70.7361 29.9879C70.6183 30.1343 70.5408 30.3097 70.5116 30.496C70.4246 31.3489 70.6707 31.6236 71.5131 31.5834C71.685 31.571 71.8557 31.5448 72.0236 31.5051C72.4551 31.4082 72.6962 31.2307 72.8303 30.7172C73.3423 28.749 74.4906 27.1797 76.087 25.9599C76.7469 25.4586 77.4958 25.1581 78.3529 25.3376C78.6016 25.3829 78.8382 25.4792 79.0483 25.6208C79.2584 25.7624 79.4374 25.9462 79.5743 26.1608C79.7112 26.3753 79.8032 26.6162 79.8444 26.8685C79.8856 27.1208 79.8752 27.3791 79.814 27.6274C79.6479 28.3756 79.243 28.9939 78.7443 29.5462C78.1793 30.1493 77.569 30.7072 76.9187 31.2146C76.9011 31.2285 76.8817 31.241 76.8618 31.2538C76.8306 31.2738 76.7982 31.2947 76.7695 31.3228C76.7003 31.3908 76.7899 31.4739 76.8824 31.4446C76.9186 31.4332 76.9546 31.4218 76.9904 31.4105C77.1973 31.3453 77.3968 31.2825 77.5927 31.2086C78.955 30.6884 80.2388 29.9772 81.4066 29.0958ZM54.0361 32.8078C54.0361 32.8078 54.0602 32.7877 54.2181 32.6579L54.287 32.6109C54.7285 32.31 55.0386 31.8761 55.1677 31.3577C55.2842 30.8898 54.8447 30.4924 54.4323 30.7422C53.2935 31.432 52.096 32.5379 51.6677 33.4735C51.5635 33.6992 51.4923 33.9389 51.4564 34.1852C51.4057 34.5107 51.5293 34.5682 51.7962 34.4651C51.8066 34.4611 51.8164 34.4556 51.8254 34.449L53.8959 32.9263C54.0817 32.7715 54.0361 32.8078 54.0361 32.8078ZM64.7822 31.1651L64.7917 31.1609C65.1033 30.7183 65.2776 30.2346 65.364 29.6867C65.4107 29.3911 65.1013 29.1863 64.8374 29.3274C63.3242 30.1362 62.0776 31.1608 61.1512 32.5821C61.1458 32.5903 61.1403 32.5987 61.1347 32.6071C61.0848 32.6819 61.0309 32.7628 61.0918 32.8601C61.2199 33.0682 61.9594 33.2846 62.1948 33.1912C63.2362 32.7509 64.1205 32.1041 64.7822 31.1651ZM75.2761 29.7096C75.658 29.0485 76.4553 28.1794 77.3155 27.6725C78.2302 27.1336 77.17 28.4525 76.1036 29.502C75.9271 29.6758 75.7216 29.8166 75.4995 29.9261C75.3418 30.0039 75.1881 29.8619 75.2761 29.7096Z" fill="white"/>
</svg>
